<?xml version="1.0" encoding="UTF-8"?>
<svg width="18px" height="18px" viewBox="0 0 18 18" version="1.1" xmlns="http://www.w3.org/2000/svg" xmlns:xlink="http://www.w3.org/1999/xlink">
    <!-- Generator: Sketch 39.1 (31720) - http://www.bohemiancoding.com/sketch -->
    <title>instagram</title>
    <desc>Created with Sketch.</desc>
    <defs></defs>
    <g id="Page-1" stroke="none" stroke-width="1" fill="none" fill-rule="evenodd">
        <g id="instagram" transform="translate(-1.000000, -1.000000)" fill="#FFFFFF">
            <path d="M18.94586,6.28931 C18.9309065,5.54268882 18.7894582,4.80400855 18.52753,4.10468 C18.3015394,3.50414041 17.9472753,2.96012249 17.48944,2.51056 C17.0398775,2.05272475 16.4958596,1.6984606 15.89532,1.47247 C15.1959915,1.21054181 14.4573112,1.06909355 13.71069,1.05414 C12.75073,1.01038 12.44427,1 10,1 C7.55573,1 7.24927,1.01038 6.28931,1.05414 C5.54268882,1.06909355 4.80400855,1.21054181 4.10468,1.47247 C3.50414041,1.6984606 2.96012249,2.05272475 2.51056,2.51056 C2.05272475,2.96012249 1.6984606,3.50414041 1.47247,4.10468 C1.21054181,4.80400855 1.06909355,5.54268882 1.05414,6.28931 C1.01038,7.24927 1,7.55573 1,10 C1,12.44427 1.01038,12.75073 1.05414,13.71069 C1.06909355,14.4573112 1.21054181,15.1959915 1.47247,15.89532 C1.6984606,16.4958596 2.05272475,17.0398775 2.51056,17.48944 C2.96010612,17.9472953 3.50412874,18.3015625 4.10468,18.52753 C4.80400855,18.7894582 5.54268882,18.9309065 6.28931,18.94586 C7.24927,18.98969 7.55573,19 10,19 C12.44427,19 12.75073,18.98969 13.71069,18.94586 C14.4573112,18.9309065 15.1959915,18.7894582 15.89532,18.52753 C17.1042544,18.0599688 18.0599588,17.1042644 18.52752,15.89533 C18.7894482,15.1960015 18.9308965,14.4573212 18.94585,13.7107 C18.98962,12.75073 19,12.44427 19,10 C19,7.55573 18.98962,7.24927 18.94586,6.28931 L18.94586,6.28931 Z M17.32593,13.63678 C17.3191752,14.2074749 17.2143342,14.7727584 17.01599,15.30792 C16.7132468,16.0928479 16.0928462,16.7132522 15.30792,17.016 C14.7727565,17.2143373 14.2074742,17.319178 13.63678,17.32594 C12.68787,17.3692 12.40326,17.37836 10,17.37836 C7.59674,17.37836 7.31213,17.3692 6.36322,17.32593 C5.79252636,17.3191712 5.22724407,17.2143339 4.69208,17.016 C4.30115027,16.8717562 3.94752965,16.6417088 3.65723,16.34278 C3.3582963,16.0524785 3.12824542,15.6988542 2.984,15.30792 C2.78565581,14.7727584 2.68081482,14.2074749 2.67406,13.63678 C2.6308,12.68774 2.62164,12.40314 2.62164,10 C2.62164,7.59686 2.6308,7.31226 2.67407,6.36322 C2.68082875,5.79252636 2.78566614,5.22724407 2.984,4.69208 C3.12824383,4.30115027 3.35829116,3.94752965 3.65722,3.65723 C3.94752151,3.3582963 4.30114575,3.12824542 4.69208,2.984 C5.22724347,2.78566272 5.79252578,2.68082196 6.36322,2.67406 C7.31226,2.6308 7.59686,2.62164 10,2.62164 C12.40314,2.62164 12.68774,2.6308 13.63678,2.67407 C14.2074742,2.68083196 14.7727565,2.78567272 15.30792,2.98401 C15.6988497,3.12825383 16.0524704,3.35830116 16.34277,3.65723 C16.6417025,3.94752863 16.8717533,4.30114933 17.016,4.69208 C17.2143373,5.22724347 17.319178,5.79252578 17.32594,6.36322 C17.36921,7.31222 17.37837,7.59692 17.37837,10 C17.37837,12.40308 17.3692,12.68774 17.32593,13.63678 L17.32593,13.63678 Z M10,5.37836 C7.44753871,5.37836 5.37836,7.44753871 5.37836,10 C5.37836,12.5524613 7.44753871,14.62164 10,14.62164 C12.5524613,14.62164 14.62164,12.5524613 14.62164,10 C14.6216124,7.44755015 12.5524499,5.37838761 10,5.37836 L10,5.37836 Z M10,13 C8.34314575,13 7,11.6568542 7,10 C7,8.34314575 8.34314575,7 10,7 C11.6568542,7 13,8.34314575 13,10 C13,10.7956495 12.6839295,11.5587112 12.1213203,12.1213203 C11.5587112,12.6839295 10.7956495,13 10,13 L10,13 Z M15.88422,5.1958 C15.88422,5.79226753 15.4006875,6.2758 14.80422,6.2758 C14.2077525,6.2758 13.72422,5.79226753 13.72422,5.1958 C13.72422,4.59933247 14.2077525,4.1158 14.80422,4.1158 C15.4006875,4.1158 15.88422,4.59933247 15.88422,5.1958 L15.88422,5.1958 Z" id="Shape"></path>
        </g>
    </g>
</svg>