<?xml version="1.0" encoding="UTF-8"?>
<svg width="16px" height="20px" viewBox="0 0 16 20" version="1.1" xmlns="http://www.w3.org/2000/svg" xmlns:xlink="http://www.w3.org/1999/xlink">
    <!-- Generator: Sketch 39.1 (31720) - http://www.bohemiancoding.com/sketch -->
    <title>pinterest</title>
    <desc>Created with Sketch.</desc>
    <defs></defs>
    <g id="Page-1" stroke="none" stroke-width="1" fill="none" fill-rule="evenodd">
        <g id="pinterest" fill="#FFFFFF">
            <path d="M6.617,13.227 C6.091,15.981 5.45,18.621 3.549,20 C2.963,15.838 4.41,12.713 5.083,9.395 C3.936,7.465 5.221,3.583 7.638,4.54 C10.613,5.716 5.062,11.712 8.788,12.462 C12.679,13.243 14.267,5.712 11.854,3.263 C8.369,-0.275 1.708,3.18 2.528,8.245 C2.727,9.483 4.006,9.858 3.039,11.567 C0.808,11.073 0.142,9.313 0.228,6.967 C0.366,3.127 3.677,0.44 6.999,0.067 C11.2,-0.404 15.143,1.61 15.688,5.561 C16.301,10.022 13.792,14.854 9.299,14.506 C8.081,14.411 7.571,13.807 6.617,13.227 L6.617,13.227 Z" id="Shape"></path>
        </g>
    </g>
</svg>