<?xml version="1.0" encoding="UTF-8"?>
<svg width="12px" height="20px" viewBox="0 0 12 20" version="1.1" xmlns="http://www.w3.org/2000/svg" xmlns:xlink="http://www.w3.org/1999/xlink">
    <!-- Generator: Sketch 39.1 (31720) - http://www.bohemiancoding.com/sketch -->
    <title>tumblr</title>
    <desc>Created with Sketch.</desc>
    <defs></defs>
    <g id="Page-1" stroke="none" stroke-width="1" fill="none" fill-rule="evenodd">
        <g id="tumblr" fill="#FFFFFF">
            <path d="M11.6,18.196 C10.823,18.567 10.12,18.827 9.491,18.977 C8.861,19.125 8.18,19.2 7.448,19.2 C6.617,19.2 5.882,19.093 5.243,18.882 C4.604,18.669 4.06,18.366 3.608,17.974 C3.157,17.579 2.844,17.162 2.67,16.72 C2.496,16.277 2.409,15.634 2.409,14.794 L2.409,8.339 L0.4,8.339 L0.4,5.735 C1.114,5.501 1.726,5.165 2.235,4.725 C2.745,4.287 3.153,3.76 3.462,3.145 C3.77,2.532 3.981,1.749 4.098,0.8 L6.683,0.8 L6.683,5.452 L10.997,5.452 L10.997,8.339 L6.683,8.339 L6.683,13.058 C6.683,14.124 6.739,14.81 6.851,15.113 C6.962,15.416 7.17,15.658 7.473,15.838 C7.876,16.082 8.336,16.205 8.854,16.205 C9.774,16.205 10.69,15.902 11.6,15.297 L11.6,18.196 L11.6,18.196 Z" id="Shape"></path>
        </g>
    </g>
</svg>